<svg width="28" height="30" viewBox="0 0 28 30" fill="none" xmlns="http://www.w3.org/2000/svg">
<g filter="url(#filter0_d_218_1812)">
<path fill-rule="evenodd" clip-rule="evenodd" d="M22.7089 5.63126C23.0989 6.02127 23.0989 6.65127 22.7089 7.04127L20.8789 8.87126L17.1289 5.12126L18.9589 3.29126C19.1458 3.10401 19.3994 2.99878 19.6639 2.99878C19.9285 2.99878 20.1821 3.10401 20.3689 3.29126L22.7089 5.63126ZM4.99878 20.5013V17.4613C4.99878 17.3213 5.04878 17.2013 5.14878 17.1013L16.0588 6.19131L19.8088 9.94131L8.88878 20.8513C8.79878 20.9513 8.66878 21.0013 8.53878 21.0013H5.49878C5.21878 21.0013 4.99878 20.7813 4.99878 20.5013Z" fill="#9C9C9C"/>
</g>
<defs>
<filter id="filter0_d_218_1812" x="-2" y="0" width="32" height="32" filterUnits="userSpaceOnUse" color-interpolation-filters="sRGB">
<feFlood flood-opacity="0" result="BackgroundImageFix"/>
<feColorMatrix in="SourceAlpha" type="matrix" values="0 0 0 0 0 0 0 0 0 0 0 0 0 0 0 0 0 0 127 0" result="hardAlpha"/>
<feOffset dy="4"/>
<feGaussianBlur stdDeviation="2"/>
<feComposite in2="hardAlpha" operator="out"/>
<feColorMatrix type="matrix" values="0 0 0 0 0 0 0 0 0 0 0 0 0 0 0 0 0 0 0.25 0"/>
<feBlend mode="normal" in2="BackgroundImageFix" result="effect1_dropShadow_218_1812"/>
<feBlend mode="normal" in="SourceGraphic" in2="effect1_dropShadow_218_1812" result="shape"/>
</filter>
</defs>
</svg>
